<svg width="24" height="24" viewBox="0 0 24 24" fill="none" xmlns="http://www.w3.org/2000/svg">
<path d="M10.6188 12.5506C10.3747 12.54 10.1306 12.5294 9.87544 12.5294C7.19062 12.5294 4.68331 13.2388 2.54211 14.4565C1.56581 15.0071 1 16.0447 1 17.1353V19.9412H11.2733C10.3969 18.7447 9.87544 17.2835 9.87544 15.7059C9.87544 14.5729 10.1528 13.5141 10.6188 12.5506Z" fill="#292F60"/>
<path d="M9.87543 11.4706C12.3263 11.4706 14.3132 9.57438 14.3132 7.23529C14.3132 4.8962 12.3263 3 9.87543 3C7.42455 3 5.43771 4.8962 5.43771 7.23529C5.43771 9.57438 7.42455 11.4706 9.87543 11.4706Z" fill="#292F60"/>
<path d="M21.8018 15.7059C21.8018 15.4729 21.7685 15.2612 21.7352 15.0388L23 13.9694L21.8906 12.1376L20.2819 12.6565C19.9269 12.3706 19.5275 12.1482 19.0837 11.9894L18.7509 10.4118H16.532L16.1992 11.9894C15.7554 12.1482 15.356 12.3706 15.001 12.6565L13.3923 12.1376L12.2829 13.9694L13.5476 15.0388C13.5144 15.2612 13.4811 15.4729 13.4811 15.7059C13.4811 15.9388 13.5144 16.1506 13.5476 16.3729L12.2829 17.4423L13.3923 19.2741L15.001 18.7553C15.356 19.0412 15.7554 19.2635 16.1992 19.4223L16.532 21H18.7509L19.0837 19.4223C19.5275 19.2635 19.9269 19.0412 20.2819 18.7553L21.8906 19.2741L23 17.4423L21.7352 16.3729C21.7685 16.1506 21.8018 15.9388 21.8018 15.7059ZM17.6414 17.8235C16.4211 17.8235 15.4226 16.8706 15.4226 15.7059C15.4226 14.5412 16.4211 13.5882 17.6414 13.5882C18.8618 13.5882 19.8603 14.5412 19.8603 15.7059C19.8603 16.8706 18.8618 17.8235 17.6414 17.8235Z" fill="#292F60"/>
</svg>
