<svg width="22" height="18" viewBox="0 0 22 18" fill="none" xmlns="http://www.w3.org/2000/svg">
<path d="M19.9314 7.39L21.2644 6.33C22.2452 5.55 22.2452 4.28 21.2644 3.5L19.4913 2.09C18.5104 1.31 16.9134 1.31 15.9326 2.09L14.5996 3.15L19.9314 7.39ZM12.8139 4.56L1.2575 13.76V18H6.58931L18.1458 8.81L12.8139 4.56ZM20.12 14.5C20.12 16.69 16.926 18 13.8325 18C13.1409 18 12.575 17.55 12.575 17C12.575 16.45 13.1409 16 13.8325 16C15.7691 16 17.605 15.27 17.605 14.5C17.605 14.03 17.0014 13.63 16.0583 13.3L17.9194 11.82C19.2649 12.45 20.12 13.29 20.12 14.5ZM1.98685 10.35C0.767076 9.79 0 9.06 0 8C0 6.2 2.37668 5.37 4.47671 4.64C5.77193 4.18 7.54501 3.56 7.54501 3C7.54501 2.59 6.56416 2 5.03001 2C3.44556 2 2.7665 2.61 2.72878 2.64C2.28865 3.05 1.49643 3.1 0.968277 2.76C0.452701 2.42 0.352101 1.81 0.779651 1.38C0.917977 1.24 2.2132 0 5.03001 0C7.84681 0 10.06 1.32 10.06 3C10.06 4.87 7.63304 5.72 5.48271 6.47C4.30066 6.88 2.515 7.5 2.515 8C2.515 8.31 3.05573 8.6 3.86053 8.86L1.98685 10.35Z" fill="#292F60"/>
</svg>
