<?xml version="1.0" encoding="utf-8"?>
<!-- Designed by Vexels.com - 2020 All Rights Reserved - https://vexels.com/terms-and-conditions/  -->
<svg version="1.1" id="Capa_1" xmlns="http://www.w3.org/2000/svg" xmlns:xlink="http://www.w3.org/1999/xlink" x="0px" y="0px"
	 viewBox="0 0 1200 1200" enable-background="new 0 0 1200 1200" xml:space="preserve">
<g>
	<path fill="#2D274F" d="M539.722,213.337c-22.246-3.749-45.947-1.518-67.305,2.97c6.359,7.501,11.727,16.5,13.039,25.861
		c20.761,5.174,36.242,15.324,50.085,24.42c15.731,10.336,28.148,18.476,43.642,16.001c9.447-1.517,15.288-6.436,17.355-14.613
		c3.115-12.311-2.92-28.457-13.74-36.76c-7.242-5.561-15.159-9.719-23.483-12.783c2.638,3.169,4.232,7.244,4.108,11.705
		c-0.271,9.672-8.267,17.296-17.86,17.028c-9.592-0.268-17.151-8.327-16.88-17.999C528.885,221.921,533.426,215.828,539.722,213.337
		z"/>
	<path fill="#2D274F" d="M462.234,247.625c1.643-6.18-8.811-19.33-19.036-26.859c-31.442-9.874-51.298-0.961-62.67,8.796
		c14.331,3.828,32.117,12.261,49.456,30.264C459.024,256.489,461.986,248.567,462.234,247.625z"/>
	<path fill="#2D274F" d="M649.22,440.31c16.409,68.427,80.242,126.923,189.734,173.855c75.202,32.235,153.912,54.611,221.481,72.24
		c-59.67-54.653-167.484-162.055-241.306-285.471c-29.475-49.273-61.37-74.116-95.043-74.116c-5.765,0-11.579,0.728-17.446,2.185
		C659.163,340.811,638.621,396.089,649.22,440.31z"/>
	<path fill="#2D274F" d="M392.911,389.688c-8.654,7.9-12.478,20.774-11.354,38.27c2.118,33.051,21.789,67.641,40.102,93.161
		c-9.428-55.965-4.455-108.517,1.148-141.845C413.773,379.651,401.554,381.801,392.911,389.688z"/>
	<path fill="#2D274F" d="M1067.565,710.567c-1.09,0.165-2.196,0.269-3.317,0.269c-1.925,0-3.885-0.244-5.845-0.755
		c-63.78-16.576-137.787-37.341-210.053-66.644c48.32,44.69,143.993,114.238,295.98,146.448c2.897,0.618,4.377-1.022,5.101-2.509
		c0.614-1.254,1.277-3.671-1.193-5.757C1111.569,750.639,1079.729,721.725,1067.565,710.567z"/>
	<path fill="#2D274F" d="M947.259,742.898l126.216,282.133c2.669,5.963,7.553,10.389,13.752,12.456
		c6.195,2.066,12.764,1.456,18.479-1.716l22.879-12.696l-117.84-249.906C987.618,763.598,966.476,753.382,947.259,742.898z"/>
	<path fill="#2D274F" d="M891.887,708.789c-8.796,5.59-18.479,10.764-28.893,15.468l123.574,290.651
		c2.234,5.246,6.386,9.299,11.689,11.407c5.303,2.112,11.106,2.013,16.337-0.263l28.184-12.283L912.456,722.456
		C905.239,717.883,898.418,713.322,891.887,708.789z"/>
	<path fill="#2D274F" d="M792.868,618.669c-95.355-47.435-149.96-104.225-166.424-172.899
		c-13.218-55.129,13.584-124.338,74.546-139.497c5.669-1.411,11.796-2.399,18.283-2.729
		c-16.478-51.768-52.378-112.792-106.905-133.466c-45.396-17.199-94.873-8.459-130.232,20.652
		c47.211-7.285,86.502,0.077,114.929,21.907c18.258,14.015,27.587,39.704,22.185,61.081c-4.381,17.324-17.629,28.99-36.345,31.999
		c-3.256,0.522-6.401,0.766-9.447,0.766c-19.852,0-35.537-10.305-50.775-20.317c-12.976-8.526-26.377-17.269-43.734-21.44
		c-10.157,11.946-29.286,16.218-42.525,17.95c-0.082,10.122,1.226,27.364,9.348,44.108c5.452,11.243,6.95,23.302,4.335,34.877
		c-7.217,31.935-21.954,118.804,6.161,201.81c0.452,0.951,0.801,1.936,0.982,2.955c11.71,33.321,30.428,65.905,59.474,93.932
		c104.745,101.079,276.393,77.015,354.556,33.445C824.741,658.303,799.643,627.546,792.868,618.669z"/>
	<path fill="#2D274F" d="M676.117,825.983c-18.045-4.961-36.619-9.454-55.638-13.847l1.612-63.53
		c-7.752-1.35-15.504-3.665-23.255-6.938l-1.653,65.147c-0.339-0.077-0.675-0.153-1.014-0.231
		c-61.885-14.049-132.024-29.97-204.02-60.192c-35.127-14.746-66.487-32.712-94.032-53.759c-0.667-0.666-1.399-1.266-2.217-1.758
		c-43.606-33.845-77.492-75.532-101.118-124.781c-29.067-60.589-30.946-110.533-30.962-111.032
		c-0.194-6.458-5.734-11.46-12.04-11.358c-6.466,0.183-11.56,5.574-11.377,12.04c0.065,2.2,1.887,54.557,32.761,119.439
		c14.983,31.49,38.632,69.161,75.545,105.253c-99.396-26.01-138.683-77.208-139.241-77.955c-3.828-5.189-11.136-6.31-16.344-2.501
		c-5.219,3.82-6.355,11.148-2.535,16.367c2.192,3,55.045,73.186,194.696,95.662c27.035,20.605,59.294,39.822,97.797,55.985
		c73.879,31.011,145.082,47.172,207.901,61.431c133.625,30.332,239.171,54.29,293.001,200.547c1.742,4.735,6.226,7.671,10.992,7.671
		c1.346,0,2.711-0.233,4.045-0.724c6.07-2.234,9.181-8.967,6.946-15.037C863.262,905.846,789.135,860.71,699.4,832.789l1.602-74.924
		c-7.924,0.788-15.204,0.83-23.428,0L676.117,825.983z"/>
	<path fill="#2D274F" d="M190.914,415.924c0.001-0.001,0.003,0,0.004-0.001c10.815-5.874,45.64-28.858,39.601-78.004
		c-0.648-5.282-3.952-9.783-8.835-12.023c-4.881-2.244-10.438-1.83-14.865,1.111c-41.915,27.865-35.317,69.571-32.296,81.688
		c0.678,2.721,2.296,5.035,4.555,6.586c0.586,0.402,1.213,0.753,1.88,1.046C184.189,417.753,187.818,417.604,190.914,415.924z"/>
	<path fill="#2D274F" d="M66.383,358.247c-4.554-0.609-8.971,0.855-12.122,4.018c-3.278,3.292-4.772,7.947-4.105,12.769
		c2.963,21.402,15.638,35.077,29.421,42.754c11.245,6.265,23.23,8.537,31.272,7.754c6.256-0.609,10.652-5.692,10.231-11.823
		C119.532,391.293,104.278,363.309,66.383,358.247z"/>
</g>
</svg>
